# Blender v3.1.2 OBJ File: ''
# www.blender.org
mtllib signboard.mtl
o 立方体
v -0.000486 -0.119972 0.205008
v 0.079054 -0.119972 0.172347
v 0.112202 -0.119972 0.093008
v 0.079540 -0.119972 0.013469
v 0.000202 -0.119972 -0.019679
v -0.079338 -0.119972 0.012982
v -0.112486 -0.119972 0.092320
v -0.079824 -0.119972 0.171860
v -0.000486 1.967445 0.205008
v 0.079054 1.967445 0.172347
v 0.112202 1.967445 0.093008
v 0.079540 1.967445 0.013469
v 0.000202 1.967445 -0.019679
v -0.079338 1.967445 0.012982
v -0.112486 1.967445 0.092320
v -0.079824 1.967445 0.171860
v -0.000142 -0.119972 0.092664
v 0.876586 0.858888 -0.097079
v 0.876586 1.909629 -0.097079
v 0.876356 0.858888 -0.012731
v 0.876356 1.909629 -0.012731
v -0.875717 0.858888 -0.103099
v -0.875717 1.909629 -0.103099
v -0.875948 0.858888 -0.018751
v -0.875948 1.909629 -0.018751
v -0.000142 1.967445 0.092664
vt 0.999946 0.205994
vt 0.000054 0.164807
vt 0.999946 0.164806
vt 0.999946 0.288369
vt 0.000054 0.247183
vt 0.999946 0.247181
vt 0.999946 0.041243
vt 0.000054 0.000054
vt 0.999946 0.000056
vt 0.999946 0.082431
vt 0.000054 0.041242
vt 0.000054 0.123618
vt 0.999946 0.123618
vt 0.000054 0.205995
vt 0.999111 0.330165
vt -0.000848 0.288975
vt 0.999111 0.288975
vt 0.000054 0.082430
vt 0.000000 0.000000
vt 0.000000 0.000000
vt 0.000000 0.000000
vt 0.000000 0.000000
vt 0.000000 0.000000
vt 0.000000 0.000000
vt 0.000000 0.000000
vt 0.000000 0.000000
vt 0.000000 0.000000
vt 1.000000 0.000000
vt 0.375000 0.250000
vt 0.375000 0.000000
vt 1.000000 0.250000
vt 0.375000 0.500000
vt 1.000000 0.500000
vt 0.375000 0.750000
vt 1.000000 0.750000
vt 0.375000 1.000000
vt 0.125000 0.750000
vt 0.125000 0.500000
vt 0.625000 0.500000
vt 0.875000 0.750000
vt 0.625000 0.750000
vt 0.000000 0.000000
vt 0.000000 0.000000
vt 0.000000 0.000000
vt 0.000000 0.000000
vt 0.000000 0.000000
vt 0.000000 0.000000
vt 0.000000 0.000000
vt 0.000000 0.000000
vt 0.000000 0.000000
vt 0.000054 0.288371
vt -0.000848 0.330166
vt 1.000000 1.000000
vt 0.875000 0.500000
vn 0.3799 0.0000 0.9250
vn -0.9250 0.0000 0.3799
vn -0.3799 0.0000 -0.9250
vn 0.3855 0.0000 -0.9227
vn 0.9227 0.0000 0.3855
vn -0.3855 0.0000 0.9227
vn -0.9227 0.0000 -0.3855
vn 0.9250 0.0000 -0.3799
vn 0.0000 1.0000 0.0000
vn 1.0000 0.0000 0.0027
vn -0.0034 0.0000 1.0000
vn -1.0000 0.0000 -0.0027
vn 0.0034 0.0000 -1.0000
vn 0.0000 -1.0000 -0.0000
usemtl マテリアル.002
s off
f 5/1/1 14/2/1 6/3/1
f 3/4/2 12/5/2 4/6/2
f 1/7/3 10/8/3 2/9/3
f 8/10/4 9/11/4 1/7/4
f 6/3/5 15/12/5 7/13/5
f 4/6/6 13/14/6 5/1/6
f 2/15/7 11/16/7 3/17/7
f 7/13/8 16/18/8 8/10/8
f 5/19/9 6/20/9 17/21/9
f 6/20/9 7/22/9 17/21/9
f 7/22/9 8/23/9 17/21/9
f 8/23/9 1/24/9 17/21/9
f 1/24/9 2/25/9 17/21/9
f 2/25/9 3/26/9 17/21/9
f 3/26/9 4/27/9 17/21/9
f 5/19/9 17/21/9 4/27/9
f 19/28/10 20/29/10 18/30/10
f 21/31/11 24/32/11 20/29/11
f 25/33/12 22/34/12 24/32/12
f 23/35/13 18/36/13 22/34/13
f 24/32/14 18/37/14 20/38/14
f 25/39/9 19/40/9 23/41/9
f 13/42/14 12/43/14 26/44/14
f 11/45/14 26/44/14 12/43/14
f 10/46/14 26/44/14 11/45/14
f 9/47/14 26/44/14 10/46/14
f 16/48/14 26/44/14 9/47/14
f 15/49/14 26/44/14 16/48/14
f 14/50/14 26/44/14 15/49/14
f 13/42/14 26/44/14 14/50/14
f 5/1/1 13/14/1 14/2/1
f 3/4/2 11/51/2 12/5/2
f 1/7/3 9/11/3 10/8/3
f 8/10/4 16/18/4 9/11/4
f 6/3/5 14/2/5 15/12/5
f 4/6/6 12/5/6 13/14/6
f 2/15/7 10/52/7 11/16/7
f 7/13/8 15/12/8 16/18/8
f 19/28/10 21/31/10 20/29/10
f 21/31/11 25/33/11 24/32/11
f 25/33/12 23/35/12 22/34/12
f 23/35/13 19/53/13 18/36/13
f 24/32/14 22/34/14 18/37/14
f 25/39/9 21/54/9 19/40/9
